<svg width="512" height="512" viewBox="0 0 512 512" fill="none" xmlns="http://www.w3.org/2000/svg">
<path d="M483.689 376L22.0957 370.536L483.689 365.071C485.223 365.071 486.695 365.647 487.78 366.672C488.865 367.696 489.474 369.086 489.474 370.536C489.474 371.985 488.865 373.375 487.78 374.4C486.695 375.424 485.223 376 483.689 376Z" fill="#F7BA25"/>
<path d="M133.059 336.875C129.535 336.875 126.09 337.862 123.159 339.712C120.229 341.561 117.945 344.19 116.597 347.265C115.248 350.341 114.895 353.725 115.583 356.989C116.27 360.254 117.967 363.253 120.459 365.607C122.951 367.961 126.126 369.564 129.583 370.213C133.039 370.863 136.622 370.529 139.878 369.255C143.134 367.981 145.917 365.824 147.875 363.056C149.833 360.289 150.878 357.035 150.878 353.706C150.878 349.242 149.001 344.961 145.659 341.805C142.317 338.649 137.785 336.875 133.059 336.875ZM137.803 353.706C137.803 354.563 137.534 355.401 137.03 356.114C136.525 356.827 135.808 357.383 134.97 357.711C134.131 358.039 133.208 358.125 132.318 357.958C131.428 357.79 130.61 357.378 129.968 356.771C129.326 356.165 128.889 355.393 128.712 354.552C128.535 353.711 128.626 352.839 128.973 352.047C129.32 351.255 129.909 350.578 130.663 350.101C131.418 349.625 132.306 349.371 133.213 349.371C134.431 349.371 135.598 349.828 136.459 350.641C137.32 351.454 137.803 352.556 137.803 353.706Z" fill="#489742"/>
<path d="M169.774 302.666C166.217 302.674 162.743 303.684 159.796 305.566C156.849 307.447 154.562 310.116 153.228 313.231H112.847C111.305 309.602 108.475 306.593 104.84 304.721C101.206 302.849 96.995 302.23 92.9304 302.971C88.8658 303.713 85.2013 305.768 82.5662 308.783C79.9311 311.799 78.4897 315.587 78.4897 319.497C78.4897 323.407 79.9311 327.195 82.5662 330.21C85.2013 333.226 88.8658 335.281 92.9304 336.022C96.995 336.763 101.206 336.145 104.84 334.273C108.475 332.401 111.305 329.392 112.847 325.763H153.228C154.433 328.6 156.434 331.074 159.015 332.918C161.596 334.763 164.66 335.909 167.878 336.233C171.096 336.557 174.347 336.046 177.282 334.757C180.217 333.468 182.724 331.448 184.535 328.914C186.346 326.38 187.392 323.428 187.561 320.375C187.73 317.323 187.015 314.284 185.494 311.586C183.972 308.887 181.702 306.631 178.926 305.06C176.149 303.489 172.972 302.661 169.736 302.666H169.774ZM174.325 319.497C174.325 320.356 174.055 321.195 173.549 321.909C173.043 322.623 172.324 323.178 171.483 323.505C170.642 323.832 169.717 323.916 168.826 323.746C167.935 323.576 167.117 323.159 166.477 322.549C165.836 321.939 165.402 321.163 165.23 320.32C165.057 319.477 165.153 318.604 165.507 317.812C165.86 317.021 166.454 316.346 167.214 315.874C167.974 315.403 168.865 315.154 169.774 315.162C170.375 315.162 170.97 315.274 171.525 315.492C172.08 315.711 172.583 316.031 173.006 316.434C173.429 316.837 173.764 317.315 173.99 317.841C174.217 318.366 174.331 318.929 174.325 319.497ZM101.044 319.497C101.044 320.356 100.774 321.195 100.268 321.909C99.7621 322.623 99.043 323.178 98.2021 323.505C97.3612 323.832 96.4364 323.916 95.5451 323.746C94.6537 323.576 93.836 323.159 93.1957 322.549C92.5553 321.939 92.1213 321.163 91.9486 320.32C91.7759 319.477 91.8723 318.604 92.2256 317.812C92.5789 317.021 93.1732 316.346 93.933 315.874C94.6928 315.403 95.584 315.154 96.4933 315.162C97.6869 315.19 98.8207 315.661 99.6505 316.472C100.48 317.283 100.939 318.369 100.929 319.497H101.044Z" fill="#F7BA25"/>
<path d="M300.216 261.319C296.671 261.342 293.214 262.358 290.282 264.239C287.35 266.119 285.076 268.78 283.747 271.884H210.466C209.042 267.523 206.177 263.707 202.29 260.997C198.403 258.286 193.699 256.824 188.867 256.824C184.036 256.824 179.331 258.286 175.444 260.997C171.557 263.707 168.692 267.523 167.268 271.884H141.659C140.347 268.765 138.074 266.09 135.134 264.205C132.194 262.32 128.723 261.313 125.17 261.313C121.617 261.313 118.146 262.32 115.207 264.205C112.267 266.09 109.994 268.765 108.682 271.884H81.6839C80.1461 268.241 77.3126 265.218 73.6707 263.336C70.0288 261.453 65.8062 260.827 61.729 261.567C57.6517 262.306 53.9747 264.365 51.3303 267.388C48.6859 270.411 47.2393 274.21 47.2393 278.131C47.2393 282.053 48.6859 285.852 51.3303 288.875C53.9747 291.898 57.6517 293.956 61.729 294.696C65.8062 295.435 70.0288 294.81 73.6707 292.927C77.3126 291.044 80.1461 288.022 81.6839 284.379H108.682C109.994 287.498 112.267 290.173 115.207 292.057C118.146 293.942 121.617 294.95 125.17 294.95C128.723 294.95 132.194 293.942 135.134 292.057C138.074 290.173 140.347 287.498 141.659 284.379H167.423C168.846 288.74 171.711 292.556 175.598 295.266C179.485 297.976 184.19 299.439 189.021 299.439C193.853 299.439 198.557 297.976 202.444 295.266C206.331 292.556 209.197 288.74 210.62 284.379H283.901C285.106 287.208 287.103 289.675 289.68 291.513C292.256 293.351 295.313 294.492 298.524 294.814C301.735 295.135 304.978 294.624 307.905 293.337C310.831 292.049 313.332 290.033 315.137 287.505C316.943 284.977 317.986 282.032 318.154 278.986C318.321 275.94 317.608 272.909 316.09 270.218C314.572 267.526 312.307 265.275 309.537 263.708C306.768 262.14 303.599 261.314 300.37 261.319H300.216ZM304.805 278.077C304.805 278.934 304.536 279.772 304.032 280.485C303.528 281.198 302.811 281.754 301.972 282.082C301.133 282.41 300.211 282.496 299.32 282.328C298.43 282.161 297.612 281.748 296.97 281.142C296.328 280.536 295.891 279.763 295.714 278.922C295.537 278.081 295.628 277.21 295.975 276.418C296.323 275.625 296.911 274.948 297.666 274.472C298.42 273.996 299.308 273.741 300.216 273.741C301.433 273.741 302.6 274.198 303.461 275.011C304.322 275.824 304.805 276.927 304.805 278.077ZM198.278 278.077C198.278 279.827 197.728 281.539 196.698 282.995C195.669 284.451 194.205 285.585 192.492 286.255C190.78 286.925 188.895 287.101 187.077 286.759C185.259 286.417 183.589 285.574 182.278 284.336C180.968 283.098 180.075 281.521 179.713 279.804C179.352 278.086 179.537 276.307 180.247 274.689C180.956 273.071 182.157 271.689 183.699 270.716C185.24 269.743 187.052 269.224 188.906 269.224C191.391 269.224 193.775 270.157 195.533 271.817C197.29 273.477 198.278 275.729 198.278 278.077ZM124.997 282.412C123.78 282.412 122.612 281.955 121.751 281.142C120.891 280.329 120.407 279.226 120.407 278.077C120.407 276.927 120.891 275.824 121.751 275.011C122.612 274.198 123.78 273.741 124.997 273.741C126.214 273.741 127.382 274.198 128.242 275.011C129.103 275.824 129.587 276.927 129.587 278.077C129.587 279.226 129.103 280.329 128.242 281.142C127.382 281.955 126.214 282.412 124.997 282.412ZM69.6504 278.077C69.7895 278.707 69.7779 279.36 69.6167 279.986C69.4554 280.612 69.1484 281.196 68.718 281.696C68.2877 282.196 67.7447 282.599 67.1288 282.875C66.5128 283.152 65.8392 283.296 65.1571 283.296C64.475 283.296 63.8014 283.152 63.1854 282.875C62.5694 282.599 62.0265 282.196 61.5961 281.696C61.1658 281.196 60.8588 280.612 60.6975 279.986C60.5362 279.36 60.5247 278.707 60.6638 278.077C60.6638 276.927 61.1474 275.824 62.0081 275.011C62.8688 274.198 64.0362 273.741 65.2535 273.741C66.4708 273.741 67.6382 274.198 68.4989 275.011C69.3597 275.824 69.8432 276.927 69.8432 278.077H69.6504Z" fill="#1E539C"/>
<path d="M329.644 214.835C326.093 214.85 322.628 215.863 319.688 217.744C316.749 219.625 314.468 222.29 313.137 225.399H304.497C303.177 222.284 300.899 219.613 297.957 217.732C295.014 215.85 291.543 214.845 287.99 214.845C284.437 214.845 280.965 215.85 278.023 217.732C275.08 219.613 272.802 222.284 271.482 225.399H260.914C259.438 219.416 255.861 214.081 250.767 210.262C245.672 206.442 239.359 204.363 232.855 204.363C226.351 204.363 220.038 206.442 214.944 210.262C209.849 214.081 206.273 219.416 204.796 225.399H154.309C152.881 221.144 150.054 217.429 146.241 214.792C142.427 212.155 137.823 210.734 133.097 210.734C128.37 210.734 123.767 212.155 119.953 214.792C116.139 217.429 113.313 221.144 111.884 225.399H56.4214C54.8722 221.767 52.0328 218.756 48.3904 216.885C44.748 215.013 40.5297 214.398 36.4591 215.143C32.3885 215.888 28.7194 217.948 26.0811 220.97C23.4429 223.991 22 227.785 22 231.702C22 235.618 23.4429 239.412 26.0811 242.434C28.7194 245.455 32.3885 247.515 36.4591 248.26C40.5297 249.006 44.748 248.39 48.3904 246.518C52.0328 244.647 54.8722 241.637 56.4214 238.004H111.806C113.235 242.259 116.062 245.974 119.875 248.611C123.689 251.248 128.293 252.669 133.019 252.669C137.746 252.669 142.349 251.248 146.163 248.611C149.977 245.974 152.803 242.259 154.232 238.004H204.796C206.273 243.987 209.849 249.322 214.944 253.142C220.038 256.961 226.351 259.04 232.855 259.04C239.359 259.04 245.672 256.961 250.767 253.142C255.861 249.322 259.438 243.987 260.914 238.004H271.482C272.787 241.134 275.06 243.821 278.004 245.715C280.948 247.608 284.428 248.621 287.99 248.621C291.551 248.621 295.031 247.608 297.975 245.715C300.919 243.821 303.192 241.134 304.497 238.004H313.137C314.335 240.846 316.332 243.326 318.911 245.176C321.49 247.027 324.554 248.179 327.775 248.507C330.995 248.836 334.249 248.33 337.187 247.043C340.126 245.755 342.637 243.736 344.451 241.202C346.265 238.667 347.314 235.714 347.484 232.659C347.654 229.604 346.94 226.562 345.417 223.862C343.894 221.162 341.621 218.905 338.842 217.334C336.063 215.762 332.883 214.936 329.644 214.944V214.835ZM334.195 231.665C334.195 232.524 333.925 233.364 333.419 234.077C332.913 234.791 332.194 235.347 331.353 235.674C330.512 236.001 329.587 236.084 328.696 235.914C327.804 235.744 326.987 235.327 326.346 234.717C325.706 234.108 325.272 233.332 325.099 232.488C324.927 231.645 325.023 230.772 325.376 229.981C325.73 229.189 326.324 228.515 327.084 228.043C327.844 227.571 328.735 227.323 329.644 227.33C330.855 227.34 332.012 227.801 332.865 228.613C333.717 229.425 334.195 230.522 334.195 231.665ZM292.579 231.665C292.579 232.523 292.31 233.361 291.806 234.074C291.301 234.787 290.585 235.342 289.746 235.67C288.907 235.998 287.984 236.084 287.094 235.917C286.204 235.75 285.386 235.337 284.744 234.731C284.102 234.124 283.665 233.352 283.488 232.511C283.311 231.67 283.402 230.798 283.749 230.006C284.097 229.214 284.685 228.537 285.44 228.061C286.194 227.584 287.082 227.33 287.99 227.33C288.592 227.33 289.189 227.442 289.746 227.66C290.303 227.878 290.809 228.197 291.235 228.6C291.661 229.002 291.999 229.48 292.23 230.006C292.461 230.532 292.579 231.096 292.579 231.665ZM248.456 231.665C248.418 234.539 247.481 237.338 245.763 239.711C244.045 242.083 241.622 243.922 238.8 244.997C235.978 246.072 232.882 246.335 229.903 245.752C226.923 245.17 224.192 243.768 222.053 241.723C219.915 239.678 218.465 237.081 217.885 234.26C217.305 231.438 217.622 228.517 218.795 225.865C219.968 223.213 221.945 220.948 224.478 219.355C227.011 217.762 229.986 216.911 233.029 216.911C237.138 216.959 241.062 218.535 243.95 221.296C246.837 224.058 248.457 227.784 248.456 231.665ZM142.083 231.665C142.083 233.351 141.554 234.999 140.562 236.401C139.57 237.803 138.161 238.896 136.512 239.541C134.863 240.186 133.048 240.355 131.297 240.026C129.547 239.697 127.938 238.885 126.676 237.693C125.414 236.501 124.555 234.982 124.206 233.328C123.858 231.675 124.037 229.961 124.72 228.403C125.403 226.845 126.56 225.514 128.044 224.577C129.528 223.641 131.273 223.141 133.058 223.141C135.452 223.141 137.747 224.039 139.44 225.637C141.132 227.236 142.083 229.404 142.083 231.665ZM39.9139 236C39.0062 236 38.1188 235.746 37.364 235.27C36.6093 234.793 36.021 234.116 35.6736 233.324C35.3262 232.532 35.2353 231.66 35.4124 230.819C35.5895 229.979 36.0266 229.206 36.6685 228.6C37.3104 227.993 38.1282 227.581 39.0185 227.413C39.9088 227.246 40.8317 227.332 41.6703 227.66C42.509 227.988 43.2258 228.544 43.7301 229.257C44.2345 229.97 44.5036 230.808 44.5036 231.665C44.5036 232.234 44.3849 232.798 44.1543 233.324C43.9236 233.85 43.5855 234.328 43.1593 234.731C42.7331 235.133 42.2272 235.452 41.6703 235.67C41.1135 235.888 40.5167 236 39.9139 236Z" fill="#489742"/>
<path d="M219.761 136C216.22 136.038 212.771 137.07 209.852 138.964C206.933 140.858 204.677 143.529 203.369 146.638H153.731C152.19 143.019 149.364 140.02 145.737 138.155C142.111 136.289 137.91 135.674 133.856 136.416C129.802 137.157 126.147 139.208 123.519 142.216C120.891 145.225 119.454 149.003 119.454 152.904C119.454 156.804 120.891 160.583 123.519 163.591C126.147 166.6 129.802 168.651 133.856 169.392C137.91 170.133 142.111 169.518 145.737 167.653C149.364 165.788 152.19 162.788 153.731 159.17H203.369C204.588 162.002 206.601 164.467 209.191 166.3C211.781 168.133 214.851 169.265 218.071 169.575C221.291 169.884 224.539 169.36 227.467 168.057C230.396 166.755 232.893 164.724 234.691 162.182C236.489 159.64 237.521 156.683 237.674 153.63C237.828 150.576 237.098 147.541 235.564 144.849C234.029 142.158 231.747 139.912 228.963 138.353C226.178 136.794 222.997 135.981 219.761 136ZM224.351 152.831C224.351 153.688 224.081 154.526 223.577 155.239C223.073 155.952 222.356 156.508 221.517 156.836C220.679 157.164 219.756 157.25 218.865 157.083C217.975 156.916 217.157 156.503 216.515 155.896C215.874 155.29 215.436 154.518 215.259 153.677C215.082 152.836 215.173 151.964 215.521 151.172C215.868 150.38 216.456 149.703 217.211 149.226C217.966 148.75 218.853 148.496 219.761 148.496C220.978 148.496 222.146 148.953 223.006 149.766C223.867 150.579 224.351 151.681 224.351 152.831ZM137.223 157.166C136.31 157.195 135.407 156.966 134.633 156.507C133.858 156.049 133.246 155.383 132.875 154.593C132.503 153.804 132.39 152.928 132.549 152.078C132.709 151.228 133.133 150.442 133.769 149.821C134.404 149.2 135.221 148.772 136.115 148.593C137.01 148.413 137.94 148.49 138.788 148.814C139.636 149.137 140.362 149.692 140.873 150.408C141.385 151.124 141.658 151.967 141.659 152.831C141.659 153.956 141.197 155.037 140.369 155.846C139.542 156.655 138.414 157.128 137.223 157.166Z" fill="#1E539C"/>
<path d="M282.126 170.207C278.575 170.223 275.11 171.235 272.17 173.117C269.231 174.998 266.95 177.663 265.619 180.772H209.346C208.035 177.653 205.762 174.978 202.822 173.093C199.882 171.209 196.411 170.201 192.858 170.201C189.305 170.201 185.834 171.209 182.894 173.093C179.955 174.978 177.682 177.653 176.37 180.772H93.601C92.0598 177.143 89.229 174.134 85.5947 172.262C81.9604 170.39 77.7494 169.771 73.6848 170.512C69.6202 171.254 65.9557 173.309 63.3206 176.324C60.6855 179.34 59.2441 183.128 59.2441 187.038C59.2441 190.948 60.6855 194.736 63.3206 197.751C65.9557 200.767 69.6202 202.822 73.6848 203.563C77.7494 204.304 81.9604 203.686 85.5947 201.814C89.229 199.942 92.0598 196.933 93.601 193.304H176.37C177.682 196.422 179.955 199.097 182.894 200.982C185.834 202.867 189.305 203.874 192.858 203.874C196.411 203.874 199.882 202.867 202.822 200.982C205.762 199.097 208.035 196.422 209.346 193.304H265.619C266.824 196.141 268.824 198.615 271.405 200.459C273.986 202.304 277.05 203.45 280.268 203.774C283.487 204.098 286.738 203.587 289.672 202.298C292.607 201.009 295.114 198.988 296.925 196.455C298.736 193.921 299.782 190.969 299.951 187.916C300.12 184.863 299.405 181.825 297.884 179.127C296.363 176.428 294.092 174.172 291.316 172.601C288.54 171.029 285.363 170.202 282.126 170.207ZM286.716 187.001C286.716 187.859 286.447 188.697 285.942 189.41C285.438 190.123 284.721 190.678 283.883 191.007C283.044 191.335 282.121 191.42 281.231 191.253C280.34 191.086 279.523 190.673 278.881 190.067C278.239 189.46 277.802 188.688 277.625 187.847C277.447 187.006 277.538 186.135 277.886 185.342C278.233 184.55 278.821 183.873 279.576 183.397C280.331 182.92 281.218 182.666 282.126 182.666C283.343 182.666 284.511 183.123 285.372 183.936C286.232 184.749 286.716 185.852 286.716 187.001ZM197.429 187.001C197.429 187.859 197.159 188.697 196.655 189.41C196.151 190.123 195.434 190.678 194.595 191.007C193.757 191.335 192.834 191.42 191.944 191.253C191.053 191.086 190.235 190.673 189.594 190.067C188.952 189.46 188.514 188.688 188.337 187.847C188.16 187.006 188.251 186.135 188.599 185.342C188.946 184.55 189.534 183.873 190.289 183.397C191.044 182.92 191.931 182.666 192.839 182.666C194.056 182.666 195.224 183.123 196.084 183.936C196.945 184.749 197.429 185.852 197.429 187.001ZM81.7217 187.001C81.7217 187.859 81.4525 188.697 80.9482 189.41C80.4439 190.123 79.7271 190.678 78.8884 191.007C78.0498 191.335 77.1269 191.42 76.2366 191.253C75.3463 191.086 74.5285 190.673 73.8866 190.067C73.2447 189.46 72.8076 188.688 72.6305 187.847C72.4534 187.006 72.5443 186.135 72.8917 185.342C73.2391 184.55 73.8273 183.873 74.5821 183.397C75.3369 182.92 76.2243 182.666 77.132 182.666C78.3493 182.666 79.5167 183.123 80.3774 183.936C81.2382 184.749 81.7217 185.852 81.7217 187.001Z" fill="#F7BA25"/>
<path d="M488.433 285.981C488.433 285.653 470.498 253.559 460.817 239.023C457.379 233.952 452.731 229.713 447.246 226.644C441.76 223.576 435.59 221.764 429.229 221.355H382.561V200.153C382.561 195.013 380.399 190.083 376.551 186.448C372.703 182.814 367.484 180.772 362.042 180.772H321.892C320.133 180.772 318.445 181.432 317.201 182.607C315.957 183.782 315.258 185.376 315.258 187.038C315.258 188.7 315.957 190.294 317.201 191.469C318.445 192.644 320.133 193.304 321.892 193.304H362.042C363.949 193.332 365.768 194.065 367.109 195.346C368.45 196.626 369.206 198.352 369.216 200.153V306.382C369.206 308.202 368.433 309.944 367.068 311.227C365.702 312.51 363.853 313.231 361.927 313.231H209.965C209.094 313.231 208.231 313.393 207.426 313.708C206.621 314.023 205.89 314.484 205.274 315.066C204.658 315.648 204.169 316.339 203.836 317.099C203.503 317.859 203.331 318.674 203.331 319.497C203.331 320.32 203.503 321.134 203.836 321.895C204.169 322.655 204.658 323.346 205.274 323.927C205.89 324.509 206.621 324.971 207.426 325.286C208.231 325.601 209.094 325.763 209.965 325.763H362.042C367.484 325.763 372.703 323.721 376.551 320.086C380.399 316.452 382.561 311.522 382.561 306.382V233.887H429.037C433.203 234.214 437.232 235.45 440.806 237.498C444.38 239.547 447.401 242.351 449.632 245.69C456.613 256.182 468.57 277.238 473.777 286.491H427.07C425.095 286.491 423.202 285.751 421.806 284.432C420.41 283.113 419.626 281.325 419.626 279.46V254.397C419.695 253.536 419.576 252.671 419.275 251.856C418.974 251.041 418.499 250.294 417.878 249.661C417.257 249.028 416.504 248.522 415.666 248.177C414.829 247.832 413.925 247.653 413.011 247.653C412.097 247.653 411.194 247.832 410.356 248.177C409.519 248.522 408.766 249.028 408.145 249.661C407.524 250.294 407.048 251.041 406.747 251.856C406.446 252.671 406.327 253.536 406.397 254.397V279.46C406.397 284.642 408.573 289.613 412.449 293.281C416.325 296.948 421.583 299.014 427.07 299.023H475.859V329.078C475.896 330.016 475.732 330.952 475.379 331.83C475.026 332.708 474.49 333.51 473.804 334.189C473.117 334.868 472.293 335.41 471.381 335.784C470.469 336.158 469.487 336.355 468.493 336.364H441.147C439.525 329.859 435.429 324.145 429.638 320.306C423.847 316.468 416.764 314.773 409.737 315.544C402.709 316.315 396.227 319.499 391.521 324.489C386.816 329.48 384.217 335.929 384.217 342.611C384.217 349.294 386.816 355.743 391.521 360.734C396.227 365.724 402.709 368.908 409.737 369.679C416.764 370.45 423.847 368.755 429.638 364.917C435.429 361.078 439.525 355.364 441.147 348.859H468.493C471.231 348.854 473.941 348.338 476.466 347.34C478.992 346.341 481.284 344.88 483.209 343.042C485.134 341.203 486.655 339.022 487.684 336.626C488.713 334.229 489.23 331.664 489.204 329.078V289.005C489.22 287.952 488.955 286.912 488.433 285.981ZM428.69 342.52C428.69 345.402 427.785 348.22 426.09 350.616C424.394 353.012 421.985 354.88 419.166 355.983C416.347 357.086 413.245 357.375 410.252 356.812C407.26 356.25 404.511 354.862 402.353 352.824C400.195 350.786 398.726 348.19 398.131 345.363C397.536 342.537 397.841 339.607 399.009 336.944C400.176 334.281 402.154 332.005 404.691 330.404C407.228 328.803 410.211 327.948 413.262 327.948C417.335 328.005 421.224 329.558 424.105 332.279C426.985 335 428.63 338.673 428.69 342.52Z" fill="#F7BA25"/>
</svg>
