<svg width="140" height="75" viewBox="0 0 140 75" fill="none" xmlns="http://www.w3.org/2000/svg">
<g clip-path="url(#clip0_140_2)">
<path d="M3.05638 73.6007C3.05638 73.3127 2.70707 73.1867 1.90099 73.1867C0.624703 73.1867 0.0806047 72.8866 0.0806047 72.1605C0.0806047 71.4344 0.752338 71.0264 1.92787 71.0264C3.10341 71.0264 3.78185 71.4884 3.78185 72.1786H2.97578C2.97578 71.8785 2.5593 71.6745 1.92787 71.6745C1.29644 71.6745 0.886682 71.8425 0.886682 72.1605C0.886682 72.4786 1.20912 72.5386 1.96818 72.5386C3.31164 72.5386 3.86247 72.8627 3.86247 73.6007C3.86247 74.3388 3.19072 74.7709 1.92787 74.7709C0.77249 74.7709 0 74.3088 0 73.6187H0.799354C0.799354 73.9248 1.25614 74.1228 1.92787 74.1228C2.5996 74.1228 3.05638 73.9368 3.05638 73.6007Z" fill="#333333"/>
<path d="M6.97266 74.6986V71.0981H7.77202V74.6986H6.97266Z" fill="#333333"/>
<path d="M13.9384 73.6007C13.9384 73.3127 13.5892 73.1867 12.783 73.1867C11.5067 73.1867 10.9627 72.8866 10.9627 72.1605C10.9627 71.4344 11.6344 71.0264 12.8099 71.0264C13.9854 71.0264 14.6639 71.4884 14.6639 72.1786H13.8578C13.8578 71.8785 13.4413 71.6745 12.8099 71.6745C12.1785 71.6745 11.762 71.8425 11.762 72.1605C11.762 72.4786 12.0845 72.5386 12.8502 72.5386C14.1937 72.5386 14.7445 72.8627 14.7445 73.6007C14.7445 74.3388 14.0727 74.7709 12.8099 74.7709C11.6546 74.7709 10.8821 74.3088 10.8821 73.6187H11.6814C11.6814 73.9248 12.1382 74.1228 12.8099 74.1228C13.4816 74.1228 13.9384 73.9368 13.9384 73.6007Z" fill="#333333"/>
<path d="M17.4114 71.0981H21.4418V71.7462H19.8296V74.6986H19.0034V71.7462H17.3979L17.4114 71.0981Z" fill="#333333"/>
<path d="M25.2639 71.7462V72.5744H27.6016V73.2104H25.2639V74.0505H28.4077V74.6986H24.4646V71.0981H28.4077V71.7462H25.2639Z" fill="#333333"/>
<path d="M33.5865 72.6103H33.6403L34.8965 71.0981H35.6219V74.6986H34.8158V72.1783C34.7638 72.3222 34.6867 72.4579 34.5874 72.5803L34.0232 73.2585H33.2171L32.6394 72.6103C32.5438 72.4868 32.4691 72.3513 32.4177 72.2083V74.7286H31.6184V71.1281H32.3371L33.5865 72.6103Z" fill="#333333"/>
<path d="M38.5708 74.6986L40.2166 71.0981H41.4257L43.0782 74.6986H42.2116L41.8758 73.9785H39.753L39.4239 74.6986H38.5708ZM41.5802 73.3304L40.8547 71.7462H40.7741L40.0486 73.3304H41.5802Z" fill="#333333"/>
<path d="M48.8015 73.6007C48.8015 73.3127 48.4522 73.1867 47.6461 73.1867C46.3698 73.1867 45.8257 72.8866 45.8257 72.1605C45.8257 71.4344 46.4638 71.0264 47.6729 71.0264C48.8821 71.0264 49.527 71.4884 49.527 72.1786H48.7209C48.7209 71.8785 48.3044 71.6745 47.6729 71.6745C47.0415 71.6745 46.6251 71.8425 46.6251 72.1605C46.6251 72.4786 46.9475 72.5386 47.7133 72.5386C49.0568 72.5386 49.6076 72.8627 49.6076 73.6007C49.6076 74.3388 48.9358 74.7709 47.6729 74.7709C46.5176 74.7709 45.7451 74.3088 45.7451 73.6187H46.5445C46.5445 73.9248 47.0012 74.1228 47.6729 74.1228C48.3447 74.1228 48.8015 73.9368 48.8015 73.6007Z" fill="#333333"/>
<path d="M57.6279 71.7462V72.5744H59.9789V73.2104H57.6279V74.0505H60.7716V74.6986H56.8218V71.0981H60.7716V71.7462H57.6279Z" fill="#333333"/>
<path d="M71.17 73.2105H72.0701C71.9794 73.6719 71.6984 74.086 71.2826 74.3713C70.8667 74.6567 70.3462 74.7923 69.8239 74.7516C69.3016 74.711 68.8153 74.4969 68.461 74.1515C68.1067 73.8062 67.9102 73.3549 67.9102 72.8864C67.9102 72.4181 68.1067 71.9666 68.461 71.6214C68.8153 71.2761 69.3016 71.0619 69.8239 71.0212C70.3462 70.9805 70.8667 71.1163 71.2826 71.4016C71.6984 71.6869 71.9794 72.1011 72.0701 72.5624H71.2036C71.1458 72.3153 70.9936 72.0939 70.7729 71.9362C70.5523 71.7785 70.277 71.6943 69.9945 71.6983C69.6382 71.6983 69.2964 71.8247 69.0445 72.0498C68.7926 72.2749 68.651 72.5801 68.651 72.8985C68.651 73.2167 68.7926 73.522 69.0445 73.7471C69.2964 73.9722 69.6382 74.0986 69.9945 74.0986C70.2747 74.0934 70.5444 74.0023 70.7584 73.8406C70.9724 73.679 71.1178 73.4565 71.17 73.2105Z" fill="#333333"/>
<path d="M79.1301 72.8987C79.1301 73.269 79.0072 73.631 78.7769 73.9389C78.5466 74.2468 78.2193 74.4867 77.8363 74.6284C77.4534 74.7701 77.032 74.8072 76.6254 74.735C76.2189 74.6627 75.8454 74.4844 75.5523 74.2226C75.2592 73.9607 75.0596 73.6271 74.9788 73.2639C74.8979 72.9008 74.9394 72.5243 75.098 72.1822C75.2566 71.8401 75.5253 71.5476 75.87 71.342C76.2146 71.1362 76.6198 71.0264 77.0343 71.0264C77.3126 71.0163 77.5902 71.0578 77.8496 71.1482C78.109 71.2387 78.3446 71.3763 78.5415 71.5522C78.7384 71.7281 78.8924 71.9386 78.9937 72.1703C79.095 72.4021 79.1415 72.6501 79.1301 72.8987ZM78.2838 72.8987C78.2655 72.6822 78.1769 72.4753 78.029 72.3031C77.881 72.1309 77.6801 72.001 77.4509 71.9293C77.2215 71.8575 76.9738 71.8471 76.738 71.8992C76.5021 71.9512 76.2883 72.0636 76.1229 72.2226C75.9574 72.3815 75.8475 72.5801 75.8064 72.794C75.7654 73.0079 75.795 73.2279 75.8917 73.427C75.9884 73.6261 76.148 73.7957 76.3509 73.915C76.5538 74.0344 76.7914 74.0982 77.0343 74.0988C77.2065 74.0992 77.3771 74.0679 77.5352 74.0066C77.6933 73.9453 77.8354 73.8555 77.9527 73.7428C78.0701 73.6301 78.1601 73.4969 78.217 73.3516C78.2739 73.2063 78.2967 73.0522 78.2838 72.8987Z" fill="#333333"/>
<path d="M83.0397 72.2143V74.6986H82.2336V71.0981H82.9591L85.4579 73.5825V71.0981H86.264V74.6986H85.5385L83.0397 72.2143Z" fill="#333333"/>
<path d="M92.4302 73.6007C92.4302 73.3127 92.0744 73.1867 91.2683 73.1867C89.9923 73.1867 89.4483 72.8866 89.4483 72.1605C89.4483 71.4344 90.1198 71.0264 91.3022 71.0264C92.4106 71.0264 93.1561 71.4884 93.1561 72.1786H92.35C92.35 71.8785 91.9264 71.6745 91.3022 71.6745C90.6771 71.6745 90.2544 71.8425 90.2544 72.1605C90.2544 72.4786 90.5764 72.5386 91.3423 72.5386C92.6853 72.5386 93.2364 72.8627 93.2364 73.6007C93.2364 74.3388 92.5649 74.7709 91.3022 74.7709C90.0387 74.7709 89.3672 74.3088 89.3672 73.6187H90.2072C90.2072 73.9248 90.6566 74.1228 91.3352 74.1228C92.0138 74.1228 92.4302 73.9368 92.4302 73.6007Z" fill="#333333"/>
<path d="M99.4027 72.9703V71.0981H100.203V72.9703C100.218 73.2055 100.179 73.441 100.089 73.6623C99.9993 73.8838 99.8602 74.0863 99.6791 74.2577C99.4981 74.4291 99.2797 74.5656 99.038 74.659C98.7954 74.7523 98.5351 74.8004 98.2711 74.8004C98.0072 74.8004 97.7468 74.7523 97.5042 74.659C97.2626 74.5656 97.0441 74.4291 96.864 74.2577C96.683 74.0863 96.543 73.8838 96.4529 73.6623C96.3628 73.441 96.3245 73.2055 96.3397 72.9703V71.0981H97.1458V72.9703C97.1288 73.1121 97.1449 73.2553 97.1939 73.391C97.243 73.5266 97.3232 73.6515 97.4293 73.7576C97.5354 73.8636 97.6665 73.9485 97.8119 74.0066C97.9572 74.0647 98.1151 74.0947 98.2747 74.0947C98.4343 74.0947 98.5921 74.0647 98.7375 74.0066C98.8828 73.9485 99.013 73.8636 99.12 73.7576C99.2261 73.6515 99.3064 73.5266 99.3554 73.391C99.4045 73.2553 99.4205 73.1121 99.4027 72.9703Z" fill="#333333"/>
<path d="M103.514 71.0981H104.313V74.0505H106.732V74.6986H103.507L103.514 71.0981Z" fill="#333333"/>
<path d="M108.834 71.0981H112.865V71.7462H111.253V74.6986H110.447V71.7462H108.834V71.0981Z" fill="#333333"/>
<path d="M119.548 72.8985C119.548 73.269 119.425 73.6312 119.194 73.9393C118.964 74.2473 118.636 74.4873 118.253 74.6288C117.869 74.7703 117.448 74.8071 117.041 74.7343C116.634 74.6616 116.261 74.4826 115.968 74.2202C115.676 73.9578 115.476 73.6236 115.397 73.2601C115.316 72.8965 115.358 72.5198 115.518 72.1778C115.678 71.8358 115.948 71.5438 116.293 71.3388C116.639 71.1338 117.045 71.025 117.459 71.0262C117.737 71.0168 118.014 71.059 118.272 71.1498C118.531 71.2407 118.766 71.3784 118.962 71.5542C119.158 71.7301 119.311 71.9403 119.413 72.1716C119.514 72.4029 119.56 72.6504 119.548 72.8985ZM118.708 72.8985C118.691 72.682 118.602 72.475 118.454 72.3028C118.306 72.1307 118.105 72.0008 117.876 71.929C117.646 71.8573 117.399 71.8469 117.163 71.899C116.927 71.951 116.714 72.0634 116.548 72.2223C116.383 72.3813 116.272 72.5799 116.231 72.7938C116.19 73.0077 116.22 73.2277 116.317 73.4267C116.413 73.6259 116.573 73.7955 116.776 73.9148C116.979 74.0342 117.217 74.098 117.459 74.0986C117.631 74.0991 117.802 74.0677 117.96 74.0064C118.118 73.9451 118.261 73.8553 118.378 73.7426C118.495 73.6299 118.585 73.4967 118.642 73.3514C118.699 73.2062 118.722 73.052 118.708 72.8985Z" fill="#333333"/>
<path d="M122.659 71.0981H125.56C125.722 71.0893 125.883 71.1112 126.035 71.1624C126.185 71.2136 126.323 71.2928 126.437 71.395C126.551 71.4971 126.64 71.6196 126.697 71.7547C126.754 71.8897 126.779 72.0341 126.77 72.1782C126.778 72.44 126.672 72.6947 126.474 72.8876C126.276 73.0805 126.001 73.1963 125.708 73.2104C125.765 73.2635 125.814 73.3218 125.856 73.3844L126.77 74.6926H125.856L124.834 73.2104H123.492V74.6866H122.685L122.659 71.0981ZM125.56 72.5742C125.614 72.5769 125.667 72.5693 125.718 72.5521C125.768 72.535 125.814 72.5086 125.852 72.4746C125.889 72.4406 125.92 72.3999 125.938 72.355C125.958 72.3101 125.966 72.2622 125.963 72.2142V72.1062C125.966 72.0582 125.958 72.0102 125.938 71.9654C125.92 71.9205 125.889 71.8797 125.852 71.8458C125.814 71.8118 125.768 71.7854 125.718 71.7682C125.667 71.7511 125.614 71.7436 125.56 71.7461H123.465V72.5742H125.56Z" fill="#333333"/>
<path d="M129.913 74.6986V71.0981H130.719V74.6986H129.913Z" fill="#333333"/>
<path d="M133.662 74.6986L135.314 71.0981H136.557L138.209 74.6986H137.336L137.006 73.9785H134.877L134.548 74.6986H133.662ZM136.671 73.3304L135.945 71.7462H135.885L135.146 73.3304H136.671Z" fill="#333333"/>
<path d="M17.6599 53.8158V45.1085C17.6599 44.5589 17.9038 44.0316 18.3382 43.6424C18.7727 43.2532 19.3621 43.0338 19.9774 43.0322C20.2825 43.0322 20.5848 43.0859 20.8668 43.1903C21.1487 43.2946 21.4049 43.4475 21.6208 43.6404C21.8366 43.8331 22.0078 44.062 22.1246 44.3139C22.2415 44.5658 22.3016 44.8358 22.3016 45.1085V53.8158C22.3016 59.8166 17.5994 64.1912 11.1575 64.1912C4.71558 64.1912 0.0134375 59.7926 0.0134375 53.8158V45.1085C0.0125537 44.8361 0.0718519 44.5663 0.18792 44.3144C0.303989 44.0625 0.474548 43.8336 0.689834 43.6407C0.905124 43.4478 1.1609 43.2948 1.4425 43.1904C1.72411 43.0859 2.02602 43.0322 2.33091 43.0322C2.94733 43.0322 3.53851 43.2509 3.97437 43.6404C4.41024 44.0297 4.65512 44.5578 4.65512 45.1085V53.8158C4.65512 57.5543 7.39579 60.2486 11.1575 60.2486C14.9192 60.2486 17.6599 57.5543 17.6599 53.8158Z" fill="#1E539C"/>
<path d="M32.0416 49.4591V61.6649C32.0416 62.2241 31.7934 62.7604 31.3515 63.1564C30.9094 63.5524 30.3098 63.7756 29.6839 63.7772C29.0781 63.7772 28.4972 63.5622 28.0689 63.1796C27.6406 62.797 27.3999 62.278 27.3999 61.7369V45.1265C27.3999 44.851 27.4608 44.5782 27.579 44.3237C27.6973 44.0692 27.8706 43.838 28.0889 43.6435C28.3073 43.449 28.5666 43.2948 28.8518 43.1899C29.137 43.085 29.4426 43.0314 29.751 43.0322H30.9064C31.1204 43.0315 31.3322 43.0713 31.5279 43.1488C31.7235 43.2264 31.8986 43.34 32.0416 43.4823L45.9868 57.3443V45.1145C45.9859 44.8413 46.0454 44.5707 46.1618 44.3181C46.2781 44.0655 46.4493 43.8359 46.6652 43.6424C46.881 43.449 47.1376 43.2955 47.42 43.1909C47.7024 43.0861 48.0052 43.0322 48.311 43.0322C48.615 43.0314 48.9162 43.0843 49.1974 43.1877C49.4784 43.291 49.734 43.443 49.9493 43.6347C50.1645 43.8264 50.3354 44.0543 50.4519 44.3052C50.5685 44.556 50.6285 44.8249 50.6285 45.0965V61.7369C50.6285 62.278 50.3878 62.797 49.9595 63.1796C49.5312 63.5622 48.9503 63.7772 48.3445 63.7772H47.1018C46.8962 63.7765 46.6931 63.7372 46.5055 63.6617C46.318 63.5862 46.1505 63.4763 46.0137 63.3391L32.0416 49.4591Z" fill="#1E539C"/>
<path d="M55.7336 61.7009V45.1085C55.7336 44.5589 55.9775 44.0316 56.412 43.6424C56.8464 43.2532 57.4358 43.0338 58.0511 43.0322C58.6675 43.0322 59.2587 43.2509 59.6946 43.6404C60.1304 44.0297 60.3753 44.5578 60.3753 45.1085V61.7009C60.3753 62.2515 60.1304 62.7796 59.6946 63.1691C59.2587 63.5584 58.6675 63.7771 58.0511 63.7771C57.4358 63.7756 56.8464 63.5561 56.412 63.1669C55.9775 62.7777 55.7336 62.2505 55.7336 61.7009Z" fill="#1E539C"/>
<path d="M66.0246 43.0322H85.0951C85.6296 43.0322 86.1422 43.2219 86.5201 43.5595C86.898 43.8971 87.1103 44.355 87.1103 44.8325C87.1103 45.0878 87.054 45.3406 86.9446 45.5765C86.8353 45.8124 86.675 46.0267 86.4729 46.2073C86.2707 46.3878 86.0309 46.5311 85.7668 46.6287C85.5027 46.7265 85.2198 46.7767 84.9339 46.7767H77.7934V61.6529C77.7934 62.2142 77.5447 62.7528 77.1016 63.1507C76.6586 63.5488 76.0572 63.774 75.4289 63.7771C74.8279 63.7756 74.2521 63.5612 73.8278 63.181C73.4034 62.8008 73.1651 62.2858 73.1651 61.7489V46.7467H65.9105C65.376 46.7467 64.8634 46.5571 64.4855 46.2195C64.1076 45.8818 63.8953 45.4239 63.8953 44.9465C63.8952 44.4409 64.1192 43.9558 64.5181 43.5971C64.9171 43.2385 65.4586 43.0353 66.0246 43.0322Z" fill="#1E539C"/>
<path d="M117.862 63.7773C117.274 63.7773 116.711 63.5687 116.294 63.1973C115.879 62.8259 115.645 62.3222 115.645 61.797V44.4725C115.645 44.0906 115.816 43.7242 116.118 43.4542C116.42 43.184 116.83 43.0323 117.257 43.0323H132.257C134.109 43.0226 135.89 43.6655 137.214 44.8215C138.538 45.9775 139.299 47.5534 139.331 49.2072C139.364 52.8077 136.57 55.2801 132.365 55.2801H120.274V61.605C120.274 62.178 120.02 62.7278 119.569 63.1347C119.117 63.5416 118.503 63.7725 117.862 63.7773ZM120.294 51.5355H132.386C133 51.5355 133.59 51.3176 134.026 50.9295C134.461 50.5414 134.708 50.0148 134.709 49.4653V48.8652C134.709 48.3145 134.464 47.7864 134.029 47.397C133.593 47.0076 133.002 46.7889 132.386 46.7889H120.294V51.5355Z" fill="#1E539C"/>
<path d="M107.471 51.4332C107.151 50.8064 106.752 50.2145 106.281 49.669L108.384 45.8584C109.821 46.9081 110.958 48.2468 111.702 49.7649L107.471 51.4332Z" fill="#1E539C"/>
<path d="M99.5507 63.9272C94.4928 64.0832 90.234 60.3266 90.0458 55.4899C89.8577 50.6532 93.8071 46.6387 98.8658 46.4887C100.355 46.4413 101.833 46.7367 103.158 47.3468L106.281 44.6104C104.452 43.7484 102.412 43.3012 100.343 43.3082C93.6261 43.3082 88.1179 47.9589 88.1179 53.6957C88.1179 59.4325 92.8003 63.9272 99.5507 63.9272Z" fill="#1E539C"/>
<path d="M101.627 55.6162C101.44 55.8337 101.208 56.0163 100.943 56.1537C100.678 56.291 100.385 56.3803 100.081 56.4165C99.7771 56.4527 99.4686 56.4351 99.1726 56.3647C98.8765 56.2943 98.5983 56.1726 98.3549 56.0063C98.1114 55.8399 97.9072 55.6325 97.7538 55.3956C97.5996 55.1588 97.4997 54.8972 97.4596 54.6258C97.4185 54.3545 97.4382 54.0786 97.5175 53.8141C97.596 53.5495 97.7324 53.3013 97.9188 53.0838C99.6184 51.1035 109.237 43.0864 109.237 43.0864L101.627 55.6162Z" fill="#1E539C"/>
<path d="M104.115 39.5336L23.7219 38.6336L104.115 37.7334C104.382 37.7334 104.639 37.8283 104.828 37.9971C105.016 38.1658 105.123 38.3948 105.123 38.6336C105.123 38.8723 105.016 39.1012 104.828 39.27C104.639 39.4389 104.382 39.5336 104.115 39.5336Z" fill="#F7BA25"/>
<path d="M43.0478 33.0889C42.434 33.0889 41.834 33.2515 41.3236 33.5561C40.8132 33.8607 40.4155 34.2937 40.1805 34.8003C39.9457 35.3069 39.8842 35.8643 40.004 36.4021C40.1237 36.94 40.4193 37.4339 40.8533 37.8217C41.2873 38.2094 41.8403 38.4734 42.4423 38.5804C43.0443 38.6874 43.6683 38.6325 44.2354 38.4226C44.8024 38.2128 45.2872 37.8574 45.6281 37.4015C45.9691 36.9456 46.1511 36.4096 46.1511 35.8612C46.1511 35.126 45.8242 34.4208 45.2422 33.9009C44.6602 33.381 43.8708 33.0889 43.0478 33.0889ZM43.874 35.8612C43.874 36.0025 43.8271 36.1406 43.7393 36.258C43.6515 36.3755 43.5266 36.467 43.3806 36.521C43.2345 36.5751 43.0737 36.5892 42.9187 36.5617C42.7636 36.5341 42.6212 36.4661 42.5094 36.3662C42.3976 36.2663 42.3215 36.1391 42.2906 36.0006C42.2598 35.862 42.2756 35.7185 42.3361 35.588C42.3966 35.4575 42.4991 35.346 42.6305 35.2675C42.762 35.189 42.9165 35.1471 43.0746 35.1471C43.2867 35.1471 43.49 35.2224 43.6399 35.3563C43.7898 35.4902 43.874 35.6719 43.874 35.8612Z" fill="#489742"/>
<path d="M49.4427 27.4541C48.8231 27.4555 48.2181 27.6217 47.7048 27.9317C47.1915 28.2417 46.7933 28.6813 46.5609 29.1943H39.5279C39.2595 28.5966 38.7665 28.1009 38.1335 27.7926C37.5005 27.4842 36.7671 27.3823 36.0592 27.5044C35.3513 27.6265 34.7131 27.965 34.2541 28.4617C33.7952 28.9584 33.5442 29.5824 33.5442 30.2266C33.5442 30.8706 33.7952 31.4946 34.2541 31.9913C34.7131 32.488 35.3513 32.8265 36.0592 32.9487C36.7671 33.0707 37.5005 32.9688 38.1335 32.6605C38.7665 32.3521 39.2595 31.8564 39.5279 31.2587H46.5609C46.7708 31.7261 47.1192 32.1335 47.5687 32.4374C48.0182 32.7412 48.5518 32.93 49.1124 32.9833C49.6729 33.0367 50.2391 32.9526 50.7502 32.7403C51.2613 32.5279 51.698 32.1951 52.0134 31.7777C52.3288 31.3603 52.511 30.8741 52.5404 30.3712C52.5698 29.8684 52.4454 29.3678 52.1804 28.9233C51.9155 28.4789 51.52 28.1072 51.0364 27.8484C50.5529 27.5896 49.9996 27.4532 49.436 27.4541H49.4427ZM50.2353 30.2266C50.2353 30.368 50.1882 30.5063 50.1001 30.6239C50.0119 30.7414 49.8867 30.8329 49.7403 30.8868C49.5938 30.9406 49.4328 30.9545 49.2775 30.9264C49.1223 30.8984 48.9799 30.8297 48.8683 30.7293C48.7568 30.6288 48.6812 30.501 48.6512 30.3621C48.621 30.2232 48.6379 30.0794 48.6994 29.9491C48.7609 29.8187 48.8644 29.7075 48.9967 29.6298C49.129 29.5521 49.2843 29.5113 49.4427 29.5124C49.5473 29.5124 49.651 29.5309 49.7475 29.5669C49.8442 29.6029 49.9319 29.6555 50.0055 29.7219C50.0793 29.7883 50.1375 29.8671 50.1769 29.9537C50.2163 30.0403 50.2362 30.133 50.2353 30.2266ZM37.4724 30.2266C37.4724 30.368 37.4253 30.5063 37.3372 30.6239C37.249 30.7414 37.1238 30.8329 36.9773 30.8868C36.8309 30.9406 36.6698 30.9545 36.5146 30.9264C36.3593 30.8984 36.2169 30.8297 36.1054 30.7293C35.9939 30.6288 35.9183 30.501 35.8882 30.3621C35.8581 30.2232 35.8749 30.0794 35.9364 29.9491C35.9979 29.8187 36.1015 29.7075 36.2338 29.6298C36.3661 29.5521 36.5214 29.5113 36.6797 29.5124C36.8876 29.5172 37.0851 29.5946 37.2296 29.7282C37.3741 29.8618 37.454 30.0407 37.4522 30.2266H37.4724Z" fill="#F7BA25"/>
<path d="M72.1607 20.6433C71.5434 20.647 70.9413 20.8144 70.4307 21.1242C69.92 21.434 69.5238 21.8723 69.2924 22.3835H56.5295C56.2816 21.6651 55.7826 21.0366 55.1055 20.5902C54.4285 20.1437 53.6092 19.9028 52.7678 19.9028C51.9263 19.9028 51.107 20.1437 50.43 20.5902C49.753 21.0366 49.254 21.6651 49.0061 22.3835H44.5458C44.3173 21.8697 43.9214 21.4292 43.4095 21.1187C42.8974 20.8083 42.2929 20.6422 41.6741 20.6422C41.0553 20.6422 40.4507 20.8083 39.9388 21.1187C39.4268 21.4292 39.0309 21.8697 38.8024 22.3835H34.1003C33.8325 21.7835 33.339 21.2856 32.7047 20.9754C32.0705 20.6653 31.335 20.5623 30.6249 20.6841C29.9148 20.8059 29.2744 21.145 28.8138 21.6429C28.3532 22.1409 28.1013 22.7667 28.1013 23.4127C28.1013 24.0586 28.3532 24.6844 28.8138 25.1824C29.2744 25.6803 29.9148 26.0194 30.6249 26.1412C31.335 26.263 32.0705 26.16 32.7047 25.8499C33.339 25.5397 33.8325 25.0418 34.1003 24.4418H38.8024C39.0309 24.9555 39.4268 25.3962 39.9388 25.7066C40.4507 26.0171 41.0553 26.183 41.6741 26.183C42.2929 26.183 42.8974 26.0171 43.4095 25.7066C43.9214 25.3962 44.3173 24.9555 44.5458 24.4418H49.0329C49.2808 25.1602 49.7798 25.7887 50.4568 26.2351C51.1338 26.6816 51.9531 26.9224 52.7946 26.9224C53.6362 26.9224 54.4555 26.6816 55.1325 26.2351C55.8095 25.7887 56.3085 25.1602 56.5564 24.4418H69.3193C69.5291 24.9079 69.877 25.3142 70.3257 25.617C70.7744 25.9197 71.3069 26.1077 71.8661 26.1606C72.4253 26.2136 72.9901 26.1294 73.4998 25.9174C74.0096 25.7053 74.4451 25.3731 74.7596 24.9567C75.0741 24.5402 75.2556 24.0551 75.2849 23.5534C75.3141 23.0518 75.1898 22.5524 74.9255 22.109C74.6611 21.6657 74.2665 21.295 73.7842 21.0368C73.3019 20.7785 72.7499 20.6425 72.1876 20.6433H72.1607ZM72.9601 23.4037C72.9601 23.5449 72.9132 23.6829 72.8253 23.8004C72.7375 23.9178 72.6127 24.0093 72.4666 24.0634C72.3205 24.1174 72.1599 24.1316 72.0048 24.104C71.8497 24.0765 71.7073 24.0084 71.5955 23.9086C71.4837 23.8087 71.4075 23.6815 71.3767 23.543C71.3459 23.4045 71.3617 23.2608 71.4222 23.1304C71.4827 22.9999 71.5851 22.8884 71.7166 22.8099C71.8481 22.7314 72.0026 22.6896 72.1607 22.6896C72.3727 22.6896 72.576 22.7648 72.7259 22.8987C72.8758 23.0326 72.9601 23.2142 72.9601 23.4037ZM54.4068 23.4037C54.4068 23.6921 54.3111 23.974 54.1317 24.2138C53.9524 24.4536 53.6974 24.6405 53.3991 24.7509C53.1009 24.8612 52.7727 24.8901 52.4561 24.8338C52.1394 24.7776 51.8485 24.6387 51.6203 24.4347C51.392 24.2308 51.2365 23.971 51.1736 23.6881C51.1105 23.4053 51.1429 23.112 51.2664 22.8456C51.39 22.5791 51.5992 22.3514 51.8676 22.1912C52.1361 22.0309 52.4517 21.9455 52.7745 21.9455C53.2074 21.9455 53.6226 22.0991 53.9287 22.3726C54.2349 22.646 54.4068 23.0169 54.4068 23.4037ZM41.6439 24.1178C41.4319 24.1178 41.2286 24.0425 41.0786 23.9086C40.9287 23.7747 40.8445 23.5931 40.8445 23.4037C40.8445 23.2142 40.9287 23.0326 41.0786 22.8987C41.2286 22.7648 41.4319 22.6896 41.6439 22.6896C41.8559 22.6896 42.0592 22.7648 42.2091 22.8987C42.359 23.0326 42.4432 23.2142 42.4432 23.4037C42.4432 23.5931 42.359 23.7747 42.2091 23.9086C42.0592 24.0425 41.8559 24.1178 41.6439 24.1178ZM32.0045 23.4037C32.0287 23.5075 32.0268 23.6149 31.9987 23.7181C31.9706 23.8212 31.9171 23.9174 31.8422 23.9997C31.7672 24.0822 31.6727 24.1485 31.5653 24.1941C31.458 24.2397 31.3408 24.2634 31.2219 24.2634C31.1031 24.2634 30.9859 24.2397 30.8786 24.1941C30.7712 24.1485 30.6767 24.0822 30.6018 23.9997C30.5268 23.9174 30.4733 23.8212 30.4452 23.7181C30.4171 23.6149 30.4152 23.5075 30.4394 23.4037C30.4394 23.2142 30.5236 23.0326 30.6735 22.8987C30.8234 22.7648 31.0267 22.6896 31.2387 22.6896C31.4507 22.6896 31.654 22.7648 31.804 22.8987C31.9539 23.0326 32.0381 23.2142 32.0381 23.4037H32.0045Z" fill="#1E539C"/>
<path d="M77.2861 12.9861C76.6677 12.9886 76.0641 13.1555 75.5521 13.4654C75.0402 13.7752 74.643 14.2142 74.4111 14.7263H72.9064C72.6765 14.213 72.2797 13.7732 71.7673 13.4633C71.2548 13.1534 70.6502 12.9877 70.0314 12.9877C69.4125 12.9877 68.808 13.1534 68.2955 13.4633C67.783 13.7732 67.3863 14.213 67.1564 14.7263H65.3158C65.0586 13.7408 64.4358 12.8619 63.5485 12.2328C62.6612 11.6037 61.5617 11.2612 60.429 11.2612C59.2962 11.2612 58.1967 11.6037 57.3094 12.2328C56.4221 12.8619 55.7993 13.7408 55.5421 14.7263H46.7491C46.5002 14.0254 46.008 13.4134 45.3438 12.979C44.6795 12.5447 43.8778 12.3106 43.0545 12.3106C42.2314 12.3106 41.4297 12.5447 40.7653 12.979C40.1011 13.4134 39.6089 14.0254 39.3601 14.7263H29.7005C29.4307 14.1279 28.9361 13.632 28.3018 13.3238C27.6674 13.0155 26.9328 12.9141 26.2238 13.0368C25.5149 13.1596 24.8758 13.4989 24.4164 13.9967C23.9569 14.4943 23.7056 15.1193 23.7056 15.7645C23.7056 16.4096 23.9569 17.0346 24.4164 17.5323C24.8758 18.03 25.5149 18.3693 26.2238 18.4921C26.9328 18.6148 27.6674 18.5134 28.3018 18.2051C28.9361 17.8969 29.4307 17.401 29.7005 16.8026H39.3466C39.5955 17.5035 40.0877 18.1155 40.7519 18.5499C41.4162 18.9842 42.2179 19.2183 43.0412 19.2183C43.8643 19.2183 44.6661 18.9842 45.3303 18.5499C45.9946 18.1155 46.4868 17.5035 46.7357 16.8026H55.5421C55.7993 17.7881 56.4221 18.667 57.3094 19.2961C58.1967 19.9253 59.2962 20.2677 60.429 20.2677C61.5617 20.2677 62.6612 19.9253 63.5485 19.2961C64.4358 18.667 65.0586 17.7881 65.3158 16.8026H67.1564C67.3837 17.3183 67.7795 17.7608 68.2923 18.0727C68.805 18.3846 69.411 18.5515 70.0314 18.5515C70.6518 18.5515 71.2577 18.3846 71.7705 18.0727C72.2832 17.7608 72.6791 17.3183 72.9064 16.8026H74.4111C74.6199 17.2708 74.9676 17.6792 75.4168 17.9841C75.866 18.2889 76.3997 18.4786 76.9605 18.5328C77.5214 18.587 78.0882 18.5035 78.5998 18.2915C79.1116 18.0794 79.549 17.7468 79.865 17.3294C80.1809 16.9118 80.3636 16.4254 80.3932 15.9221C80.4229 15.4189 80.2984 14.9179 80.0332 14.4731C79.768 14.0283 79.3721 13.6565 78.888 13.3977C78.404 13.1389 77.8502 13.0027 77.2861 13.0041V12.9861ZM78.0787 15.7584C78.0787 15.9 78.0317 16.0383 77.9435 16.1558C77.8554 16.2734 77.7301 16.3649 77.5837 16.4188C77.4372 16.4726 77.2762 16.4864 77.1209 16.4584C76.9657 16.4303 76.8233 16.3617 76.7118 16.2613C76.6002 16.1608 76.5246 16.033 76.4946 15.8941C76.4645 15.7552 76.4813 15.6114 76.5428 15.481C76.6043 15.3506 76.7079 15.2395 76.8402 15.1618C76.9725 15.0841 77.1277 15.0431 77.2861 15.0443C77.497 15.0459 77.6986 15.1219 77.847 15.2556C77.9954 15.3893 78.0787 15.5701 78.0787 15.7584ZM70.8307 15.7584C70.8307 15.8997 70.7838 16.0378 70.696 16.1552C70.6082 16.2727 70.4833 16.3642 70.3372 16.4182C70.1912 16.4723 70.0305 16.4864 69.8754 16.4588C69.7204 16.4313 69.5779 16.3633 69.4661 16.2634C69.3544 16.1635 69.2782 16.0363 69.2474 15.8977C69.2165 15.7592 69.2324 15.6157 69.2929 15.4852C69.3533 15.3547 69.4558 15.2432 69.5873 15.1647C69.7188 15.0862 69.8733 15.0443 70.0314 15.0443C70.1363 15.0443 70.2403 15.0629 70.3372 15.0988C70.4343 15.1346 70.5224 15.1872 70.5966 15.2535C70.6708 15.3198 70.7297 15.3985 70.7699 15.4852C70.81 15.5718 70.8307 15.6647 70.8307 15.7584ZM63.1462 15.7584C63.1395 16.2319 62.9763 16.693 62.677 17.0838C62.3778 17.4745 61.9559 17.7775 61.4644 17.9546C60.9729 18.1316 60.4337 18.175 59.9147 18.079C59.3958 17.983 58.9201 17.7521 58.5476 17.4152C58.1753 17.0784 57.9226 16.6506 57.8217 16.1858C57.7207 15.721 57.7759 15.24 57.9802 14.8031C58.1844 14.3662 58.5288 13.9931 58.97 13.7306C59.4111 13.4682 59.9292 13.3281 60.4592 13.3281C61.1748 13.336 61.8582 13.5956 62.3612 14.0504C62.8642 14.5054 63.1462 15.119 63.1462 15.7584ZM44.6197 15.7584C44.6197 16.0362 44.5275 16.3077 44.3548 16.5386C44.1821 16.7695 43.9366 16.9495 43.6494 17.0558C43.3622 17.1621 43.0461 17.1899 42.7412 17.1356C42.4363 17.0815 42.1562 16.9477 41.9364 16.7514C41.7165 16.555 41.5669 16.3048 41.5062 16.0324C41.4455 15.76 41.4766 15.4777 41.5957 15.2211C41.7146 14.9645 41.9161 14.7452 42.1746 14.5909C42.4331 14.4366 42.737 14.3543 43.0479 14.3543C43.4647 14.3543 43.8646 14.5022 44.1593 14.7656C44.4541 15.0289 44.6197 15.3861 44.6197 15.7584ZM26.8255 16.4725C26.6674 16.4725 26.5129 16.4306 26.3814 16.3522C26.2499 16.2738 26.1475 16.1622 26.087 16.0317C26.0264 15.9013 26.0107 15.7576 26.0415 15.6191C26.0724 15.4806 26.1484 15.3534 26.2603 15.2535C26.3721 15.1537 26.5145 15.0857 26.6696 15.0581C26.8246 15.0305 26.9853 15.0447 27.1314 15.0988C27.2774 15.1528 27.4023 15.2443 27.4901 15.3617C27.5779 15.4792 27.6249 15.6172 27.6249 15.7584C27.6249 15.8523 27.6042 15.9451 27.564 16.0317C27.5238 16.1184 27.465 16.1971 27.3908 16.2634C27.3165 16.3297 27.2284 16.3823 27.1314 16.4182C27.0344 16.4541 26.9305 16.4725 26.8255 16.4725Z" fill="#489742"/>
<path d="M58.1483 5.75913e-05C57.5316 0.00633725 56.9309 0.17628 56.4226 0.488287C55.9142 0.800298 55.5212 1.24028 55.2935 1.75231H46.6483C46.3799 1.15622 45.8877 0.662159 45.2561 0.354908C44.6245 0.0476571 43.8928 -0.0536196 43.1868 0.0684594C42.4806 0.190538 41.8441 0.528361 41.3865 1.02395C40.9288 1.51953 40.6785 2.14198 40.6785 2.78445C40.6785 3.42693 40.9288 4.04938 41.3865 4.54497C41.8441 5.04055 42.4806 5.37838 43.1868 5.50046C43.8928 5.62253 44.6245 5.52126 45.2561 5.21401C45.8877 4.90676 46.3799 4.41269 46.6483 3.81661H55.2935C55.5057 4.2831 55.8563 4.68912 56.3074 4.99108C56.7585 5.29304 57.2932 5.47953 57.854 5.53054C58.4148 5.58155 58.9806 5.49513 59.4905 5.28058C60.0005 5.06603 60.4354 4.73145 60.7487 4.31276C61.0618 3.89406 61.2414 3.40707 61.2682 2.90406C61.295 2.40105 61.1679 1.90103 60.9005 1.45768C60.6333 1.01433 60.2358 0.64439 59.7509 0.387586C59.266 0.130783 58.712 -0.00318776 58.1483 5.75913e-05ZM58.9477 2.77245C58.9477 2.91369 58.9008 3.05176 58.8129 3.16919C58.7251 3.28662 58.6002 3.37815 58.4542 3.4322C58.3081 3.48625 58.1474 3.50039 57.9924 3.47284C57.8373 3.44528 57.6949 3.37727 57.5831 3.2774C57.4712 3.17753 57.3952 3.05029 57.3643 2.91177C57.3335 2.77324 57.3493 2.62967 57.4098 2.49918C57.4703 2.36869 57.5727 2.25716 57.7042 2.1787C57.8357 2.10023 57.9902 2.05835 58.1483 2.05835C58.3603 2.05835 58.5636 2.13359 58.7136 2.26751C58.8635 2.40143 58.9477 2.58306 58.9477 2.77245ZM43.7733 3.48656C43.6141 3.49134 43.457 3.45356 43.3221 3.37806C43.1871 3.30255 43.0805 3.19277 43.0158 3.06278C42.9512 2.93278 42.9315 2.78851 42.9592 2.64844C42.987 2.50837 43.0609 2.3789 43.1715 2.27662C43.2822 2.17433 43.4245 2.1039 43.5803 2.07434C43.736 2.04479 43.8981 2.05746 44.0457 2.11073C44.1934 2.164 44.3198 2.25544 44.4089 2.37334C44.498 2.49124 44.5456 2.63022 44.5457 2.77245C44.5459 2.95776 44.4653 3.13585 44.3211 3.2691C44.177 3.40235 43.9805 3.48033 43.7733 3.48656Z" fill="#1E539C"/>
<path d="M69.0102 5.63479C68.3918 5.63733 67.7882 5.80417 67.2762 6.11406C66.7642 6.42395 66.3671 6.86289 66.1351 7.37503H56.3346C56.1061 6.86129 55.7102 6.42067 55.1983 6.11021C54.6863 5.79976 54.0817 5.63379 53.4629 5.63379C52.8441 5.63379 52.2396 5.79976 51.7276 6.11021C51.2156 6.42067 50.8198 6.86129 50.5912 7.37503H36.1758C35.9074 6.77725 35.4144 6.28161 34.7815 5.97323C34.1485 5.66484 33.4151 5.56295 32.7071 5.68506C31.9993 5.80717 31.3611 6.14566 30.9021 6.64239C30.4432 7.13912 30.1921 7.7631 30.1921 8.40719C30.1921 9.05123 30.4432 9.67524 30.9021 10.172C31.3611 10.6687 31.9993 11.0072 32.7071 11.1293C33.4151 11.2514 34.1485 11.1496 34.7815 10.8412C35.4144 10.5327 35.9074 10.0371 36.1758 9.43931H50.5912C50.8198 9.95306 51.2156 10.3937 51.7276 10.7042C52.2396 11.0146 52.8441 11.1806 53.4629 11.1806C54.0817 11.1806 54.6863 11.0146 55.1983 10.7042C55.7102 10.3937 56.1061 9.95306 56.3346 9.43931H66.1351C66.345 9.90671 66.6934 10.3142 67.143 10.618C67.5925 10.9218 68.1261 11.1106 68.6866 11.164C69.2471 11.2173 69.8134 11.1333 70.3244 10.9209C70.8356 10.7085 71.2722 10.3758 71.5876 9.95841C71.903 9.54104 72.0852 9.05482 72.1146 8.55192C72.1441 8.04902 72.0196 7.54848 71.7547 7.104C71.4897 6.65953 71.0943 6.28793 70.6107 6.02908C70.1272 5.77023 69.5739 5.63392 69.0102 5.63479ZM69.8096 8.4012C69.8096 8.54242 69.7626 8.68046 69.6748 8.7979C69.587 8.91535 69.4621 9.00687 69.3161 9.06096C69.17 9.11498 69.0093 9.1291 68.8543 9.10157C68.6992 9.07405 68.5568 9.00599 68.445 8.9061C68.3331 8.80628 68.257 8.67902 68.2262 8.54051C68.1954 8.402 68.2111 8.25838 68.2717 8.12793C68.3322 7.9974 68.4346 7.8859 68.566 7.80743C68.6975 7.72896 68.8521 7.68708 69.0102 7.68708C69.2222 7.68708 69.4255 7.76231 69.5754 7.89624C69.7253 8.03019 69.8096 8.21179 69.8096 8.4012ZM54.2589 8.4012C54.2589 8.54242 54.212 8.68046 54.1242 8.7979C54.0364 8.91535 53.9115 9.00687 53.7655 9.06096C53.6194 9.11498 53.4586 9.1291 53.3036 9.10157C53.1486 9.07405 53.0061 9.00599 52.8943 8.9061C52.7825 8.80628 52.7064 8.67902 52.6755 8.54051C52.6448 8.402 52.6605 8.25838 52.721 8.12793C52.7815 7.9974 52.884 7.8859 53.0154 7.80743C53.1469 7.72896 53.3014 7.68708 53.4595 7.68708C53.6716 7.68708 53.8749 7.76231 54.0248 7.89624C54.1747 8.03019 54.2589 8.21179 54.2589 8.4012ZM34.1069 8.4012C34.1069 8.54242 34.0601 8.68046 33.9722 8.7979C33.8844 8.91535 33.7596 9.00687 33.6135 9.06096C33.4674 9.11498 33.3066 9.1291 33.1516 9.10157C32.9965 9.07405 32.8541 9.00599 32.7424 8.9061C32.6305 8.80628 32.5544 8.67902 32.5235 8.54051C32.4927 8.402 32.5086 8.25838 32.569 8.12793C32.6296 7.9974 32.732 7.8859 32.8635 7.80743C32.9949 7.72896 33.1494 7.68708 33.3075 7.68708C33.5196 7.68708 33.7229 7.76231 33.8728 7.89624C34.0227 8.03019 34.1069 8.21179 34.1069 8.4012Z" fill="#F7BA25"/>
<path d="M104.941 24.7055C104.941 24.6515 101.817 19.3647 100.131 16.9704C99.5328 16.1351 98.7231 15.4367 97.7681 14.9313C96.8121 14.4259 95.7376 14.1274 94.6301 14.06H86.5021V10.5675C86.5021 9.72076 86.1256 8.90877 85.4554 8.31004C84.7852 7.71135 83.8762 7.375 82.9285 7.375H75.9357C75.6293 7.375 75.3354 7.48375 75.1187 7.67731C74.902 7.87088 74.7803 8.13339 74.7803 8.40714C74.7803 8.68089 74.902 8.94339 75.1187 9.13696C75.3354 9.33052 75.6293 9.43927 75.9357 9.43927H82.9285C83.2605 9.44398 83.5773 9.56478 83.8109 9.77565C84.0444 9.98653 84.1762 10.2708 84.1779 10.5675V28.066C84.1761 28.3658 84.0416 28.6527 83.8037 28.8641C83.5658 29.0755 83.2439 29.1941 82.9084 29.1941H56.442C56.2903 29.1941 56.1401 29.2208 55.9999 29.2727C55.8597 29.3246 55.7323 29.4006 55.625 29.4964C55.5178 29.5923 55.4327 29.7061 55.3746 29.8313C55.3165 29.9566 55.2866 30.0908 55.2866 30.2263C55.2866 30.3618 55.3165 30.4961 55.3746 30.6213C55.4327 30.7465 55.5178 30.8603 55.625 30.9561C55.7323 31.052 55.8597 31.128 55.9999 31.1799C56.1401 31.2317 56.2903 31.2584 56.442 31.2584H82.9285C83.8762 31.2584 84.7852 30.9221 85.4554 30.3234C86.1256 29.7247 86.5021 28.9127 86.5021 28.066V16.1242H94.5962C95.3221 16.1781 96.0239 16.3818 96.6463 16.7191C97.2687 17.0566 97.7948 17.5185 98.1836 18.0685C99.399 19.7968 101.482 23.2653 102.389 24.7895H94.2538C93.9105 24.7895 93.5805 24.6675 93.3371 24.4503C93.0937 24.2331 92.9572 23.9385 92.9572 23.6313V19.5028C92.9697 19.361 92.9492 19.2186 92.8966 19.0843C92.844 18.9501 92.7611 18.8269 92.6532 18.7226C92.5444 18.6183 92.4133 18.5351 92.2679 18.4782C92.1217 18.4213 91.9647 18.392 91.8051 18.392C91.6464 18.392 91.4886 18.4213 91.3432 18.4782C91.197 18.5351 91.0659 18.6183 90.958 18.7226C90.8501 18.8269 90.7672 18.9501 90.7146 19.0843C90.6619 19.2186 90.6414 19.361 90.653 19.5028V23.6313C90.653 24.4849 91.0329 25.3037 91.7079 25.9078C92.383 26.512 93.2988 26.8522 94.2538 26.8538H102.751V31.8045C102.757 31.9591 102.73 32.1132 102.668 32.2579C102.607 32.4024 102.513 32.5346 102.393 32.6464C102.274 32.7583 102.13 32.8476 101.972 32.9092C101.813 32.9707 101.642 33.0032 101.469 33.0047H96.706C96.4233 31.9332 95.71 30.9919 94.7014 30.3596C93.6929 29.7273 92.4588 29.4482 91.2353 29.5752C90.011 29.7022 88.8822 30.2266 88.0627 31.0486C87.2432 31.8707 86.7905 32.9331 86.7905 34.0338C86.7905 35.1346 87.2432 36.197 88.0627 37.019C88.8822 37.8411 90.011 38.3654 91.2353 38.4925C92.4588 38.6195 93.6929 38.3404 94.7014 37.708C95.71 37.0757 96.4233 36.1344 96.706 35.0629H101.469C101.945 35.0622 102.417 34.9772 102.857 34.8126C103.297 34.6482 103.696 34.4076 104.031 34.1047C104.367 33.8017 104.632 33.4426 104.811 33.0478C104.99 32.653 105.08 32.2305 105.076 31.8045V25.2036C105.078 25.0301 105.032 24.8588 104.941 24.7055ZM94.5356 34.0188C94.5356 34.4936 94.3786 34.9576 94.0835 35.3524C93.7883 35.7471 93.3683 36.0548 92.877 36.2365C92.3865 36.4181 91.8461 36.4657 91.3245 36.373C90.8037 36.2804 90.3249 36.0518 89.9495 35.7162C89.5732 35.3804 89.3172 34.9528 89.2138 34.4871C89.1101 34.0215 89.1633 33.5388 89.3663 33.1003C89.5705 32.6617 89.9147 32.2867 90.3561 32.023C90.7984 31.7593 91.3174 31.6184 91.8488 31.6184C92.5586 31.6278 93.2355 31.8837 93.7375 32.3318C94.2395 32.78 94.5258 33.3851 94.5356 34.0188Z" fill="#F7BA25"/>
</g>
<defs>
<clipPath id="clip0_140_2">
<rect width="140" height="75" fill="white"/>
</clipPath>
</defs>
</svg>
